name C:/MyDriveSym/Projects/mobilecap/Data\Session20210830_0002\mocap\ForceDataProcessed\walkingTS1_forces.mot
datacolumns 19
datarows 9
range 1.07950000 1.08350000
endheader 
time	R_ground_force_vx	R_ground_force_vy	R_ground_force_vz	R_ground_force_px	R_ground_force_py	R_ground_force_pz	R_ground_torque_x	R_ground_torque_y	R_ground_torque_z	L_ground_force_vx	L_ground_force_vy	L_ground_force_vz	L_ground_force_px	L_ground_force_py	L_ground_force_pz	L_ground_torque_x	L_ground_torque_y	L_ground_torque_z	
          1.07950000	          0.00000000	          0.00000000	          0.00000000	          1.29416700	          0.00000000	         -0.24848300	          0.00000000	          0.00000000	          0.00000000	         52.47455000	        793.05146400	         51.90554700	          1.01333200	          0.00600000	         -0.37422600	          0.00000000	          1.61088000	          0.00000000	
          1.08000000	          0.00000000	          0.00000000	          0.00000000	          1.29536800	          0.00000000	         -0.24861900	          0.00000000	          0.00000000	          0.00000000	         52.90001200	        794.26554100	         52.04137200	          1.01341700	          0.00600000	         -0.37424100	          0.00000000	          1.59009500	          0.00000000	
          1.08050000	          0.00000000	          0.00000000	          0.00000000	          1.29656900	          0.00000000	         -0.24875600	          0.00000000	          0.00000000	          0.00000000	         53.32653100	        795.47210500	         52.17648700	          1.01350200	          0.00600000	         -0.37425600	          0.00000000	          1.56924700	          0.00000000	
          1.08100000	          0.00000000	          0.00000000	          0.00000000	          1.29777000	          0.00000000	         -0.24889200	          0.00000000	          0.00000000	          0.00000000	         53.75409500	        796.67104900	         52.31087100	          1.01358800	          0.00600000	         -0.37427100	          0.00000000	          1.54833700	          0.00000000	
          1.08150000	          0.00000000	          0.00000000	          0.00000000	          1.29897100	          0.00000000	         -0.24902900	          0.00000000	          0.00000000	          0.00000000	         54.18269100	        797.86226700	         52.44450000	          1.01367400	          0.00600000	         -0.37428700	          0.00000000	          1.52736700	          0.00000000	
          1.08200000	          0.00000000	          0.00000000	          0.00000000	          1.30017200	          0.00000000	         -0.24916500	          0.00000000	          0.00000000	          0.00000000	         54.61230300	        799.04565100	         52.57735200	          1.01376000	          0.00600000	         -0.37430200	          0.00000000	          1.50633900	          0.00000000	
          1.08250000	          0.00000000	          0.00000000	          0.00000000	          1.30137300	          0.00000000	         -0.24930200	          0.00000000	          0.00000000	          0.00000000	         55.04291900	        800.22109600	         52.70940600	          1.01384600	          0.00600000	         -0.37431800	          0.00000000	          1.48525500	          0.00000000	
          1.08300000	          0.00000000	          0.00000000	          0.00000000	          1.30257400	          0.00000000	         -0.24943800	          0.00000000	          0.00000000	          0.00000000	         55.47452400	        801.38849400	         52.84063700	          1.01393300	          0.00600000	         -0.37433400	          0.00000000	          1.46411600	          0.00000000	
          1.08350000	          0.00000000	          0.00000000	          0.00000000	          1.30377500	          0.00000000	         -0.24957500	          0.00000000	          0.00000000	          0.00000000	         55.90710300	        802.54774000	         52.97102500	          1.01401900	          0.00600000	         -0.37435000	          0.00000000	          1.44292400	          0.00000000	
